<svg xmlns="http://www.w3.org/2000/svg" width="27" height="24" viewBox="0 0 27 24">
  <metadata><?xpacket begin="﻿" id="W5M0MpCehiHzreSzNTczkc9d"?>
<x:xmpmeta xmlns:x="adobe:ns:meta/" x:xmptk="Adobe XMP Core 5.6-c142 79.160924, 2017/07/13-01:06:39        ">
   <rdf:RDF xmlns:rdf="http://www.w3.org/1999/02/22-rdf-syntax-ns#">
      <rdf:Description rdf:about=""/>
   </rdf:RDF>
</x:xmpmeta>
                                                                                                    
                                                                                                    
                                                                                                    
                                                                                                    
                                                                                                    
                                                                                                    
                                                                                                    
                                                                                                    
                                                                                                    
                                                                                                    
                                                                                                    
                                                                                                    
                                                                                                    
                                                                                                    
                                                                                                    
                                                                                                    
                                                                                                    
                                                                                                    
                                                                                                    
                                                                                                    
                           
<?xpacket end="w"?></metadata>
<defs>
    <style>
      .cls-1 {
        fill: #fff;
        fill-rule: evenodd;
      }
    </style>
  </defs>
  <path id="Icon" class="cls-1" d="M914.648,6345.2l-11.074-18.99a2.388,2.388,0,0,0-4.154,0l-11.073,18.99a2.59,2.59,0,0,0-.035,2.53,2.426,2.426,0,0,0,2.112,1.27h22.147a2.415,2.415,0,0,0,2.112-1.28A2.571,2.571,0,0,0,914.648,6345.2Zm-1.5,1.63a0.657,0.657,0,0,1-.581.35H890.424a0.657,0.657,0,0,1-.581-0.35,0.7,0.7,0,0,1,.009-0.69l11.074-18.99a0.66,0.66,0,0,1,1.143,0l11.073,18.99A0.7,0.7,0,0,1,913.152,6346.83Zm-11.647-14.35a1.055,1.055,0,0,0-1.19,1.02c0,2.01.228,4.89,0.228,6.9a0.808,0.808,0,0,0,.963.74,0.86,0.86,0,0,0,.945-0.74c0-2.01.229-4.89,0.229-6.9A1.058,1.058,0,0,0,901.505,6332.48Zm0.017,9.82a1.3,1.3,0,0,0,0,2.6A1.3,1.3,0,0,0,901.522,6342.3Z" transform="translate(-888 -6325)"/>
</svg>
