<svg xmlns="http://www.w3.org/2000/svg" width="13" height="13" viewBox="0 0 13 13">
  <metadata><?xpacket begin="﻿" id="W5M0MpCehiHzreSzNTczkc9d"?>
<x:xmpmeta xmlns:x="adobe:ns:meta/" x:xmptk="Adobe XMP Core 5.6-c142 79.160924, 2017/07/13-01:06:39        ">
   <rdf:RDF xmlns:rdf="http://www.w3.org/1999/02/22-rdf-syntax-ns#">
      <rdf:Description rdf:about=""/>
   </rdf:RDF>
</x:xmpmeta>
                                                                                                    
                                                                                                    
                                                                                                    
                                                                                                    
                                                                                                    
                                                                                                    
                                                                                                    
                                                                                                    
                                                                                                    
                                                                                                    
                                                                                                    
                                                                                                    
                                                                                                    
                                                                                                    
                                                                                                    
                                                                                                    
                                                                                                    
                                                                                                    
                                                                                                    
                                                                                                    
                           
<?xpacket end="w"?></metadata>
<defs>
    <style>
      .cls-1 {
        fill: #6f9cff;
        fill-rule: evenodd;
      }
    </style>
  </defs>
  <path id="Close" class="cls-1" d="M1420.23,88.5l5.6,5.606a0.516,0.516,0,0,1,0,.742,0.52,0.52,0,0,1-.74,0l-5.6-5.606-5.6,5.606a0.52,0.52,0,0,1-.74,0,0.516,0.516,0,0,1,0-.742l5.6-5.606-5.6-5.606a0.516,0.516,0,0,1,0-.742,0.521,0.521,0,0,1,.74,0l5.6,5.605,5.6-5.606a0.522,0.522,0,0,1,.74,0,0.517,0.517,0,0,1,0,.743Z" transform="translate(-1413 -82)"/>
</svg>
