<?xml version="1.0" encoding="UTF-8"?>
<!DOCTYPE svg PUBLIC "-//W3C//DTD SVG 1.1//EN" "http://www.w3.org/Graphics/SVG/1.1/DTD/svg11.dtd">
<!-- Creator: CorelDRAW X8 -->
<svg xmlns="http://www.w3.org/2000/svg" xml:space="preserve" width="70px" height="70px" version="1.1" style="shape-rendering:geometricPrecision; text-rendering:geometricPrecision; image-rendering:optimizeQuality; fill-rule:evenodd; clip-rule:evenodd"
viewBox="0 0 70 70"
 xmlns:xlink="http://www.w3.org/1999/xlink">
 <defs>
  <style type="text/css">
   <![CDATA[
    .fil0 {fill:url(#id0)}
   ]]>
  </style>
  <linearGradient id="id0" gradientUnits="userSpaceOnUse" x1="-0.00118112" y1="35" x2="70.0012" y2="35">
   <stop offset="0" style="stop-opacity:1; stop-color:#8183BC"/>
   <stop offset="1" style="stop-opacity:1; stop-color:#464274"/>
  </linearGradient>
 </defs>
 <g id="Слой_x0020_1">
  <metadata id="CorelCorpID_0Corel-Layer"/>
  <path id="Icon" class="fil0" d="M70 46c0,13 -10,24 -23,24 -7,0 -13,-3 -17,-7l-16 0c-4,0 -7,-3 -7,-7 0,-2 1,-4 3,-5 -3,-2 -3,-6 -1,-9 0,0 0,-1 1,-1 -3,-2 -3,-6 -1,-9 0,0 0,0 1,-1 -2,-1 -3,-3 -3,-5 0,-3 3,-6 7,-6l3 0c-1,-2 -1,-5 0,-7l-11 0c-3,0 -6,-3 -6,-7 0,-3 3,-6 6,-6l34 0c3,0 6,3 6,6 0,2 0,3 -1,4l11 0c3,0 6,3 6,6 0,4 -3,7 -6,7l-4 0c1,0 1,0 1,1 10,3 17,12 17,22zm-56 14l14 0c-2,-2 -3,-5 -4,-7l-10 0c-2,0 -4,1 -4,3 0,2 2,4 4,4zm0 -10l10 0c-1,-3 -1,-5 0,-7l-10 0c-2,0 -4,1 -4,3 0,2 2,4 4,4l0 0zm0 -10l10 0c1,-3 2,-5 4,-7l-14 0c-2,0 -4,1 -4,3 0,2 2,4 4,4 0,0 0,0 0,0l0 0zm0 -17c-2,0 -4,1 -4,3 0,2 2,4 4,4l16 0c5,-5 11,-7 17,-7 0,0 1,0 2,0 -1,0 -1,0 -2,0l-33 0 0 0zm26 -20l-34 0c-2,0 -3,1 -3,3 0,2 1,4 3,4l34 0c2,0 3,-2 3,-4 0,-2 -1,-3 -3,-3l0 0zm16 17c2,0 3,-2 3,-4 0,-2 -1,-3 -3,-3l-34 0c-2,0 -3,1 -3,3 0,2 1,4 3,4l34 0zm-9 6c-12,0 -21,9 -21,20 0,12 9,21 21,21 11,0 20,-9 20,-21 0,-11 -9,-20 -20,-20l0 0zm18 20c0,3 -1,6 -3,9 0,1 -1,1 -1,1 0,0 0,0 0,-1 -1,0 -1,-1 -1,-1 1,-3 2,-5 2,-8 0,-5 -4,-11 -9,-13 0,-1 -1,-1 0,-2 0,-1 1,-1 1,-1 0,0 0,0 0,0 3,2 6,4 8,7 2,3 3,6 3,9l0 0zm-16 -15l0 0c-1,0 -2,0 -2,-1 1,-1 1,-1 2,-2l0 0c1,1 1,1 1,2 0,1 0,1 -1,1l0 0zm-2 19l-7 -3 7 -12 8 12 -8 3zm-7 10c1,1 1,1 1,2 0,1 -1,1 -2,1 0,0 0,0 0,0 -3,-2 -5,-4 -7,-7 -4,-5 -4,-12 -1,-18 0,-1 1,-1 2,-1 0,0 0,0 0,0 1,1 1,2 0,2 -1,3 -1,5 -1,7 0,6 3,12 8,14l0 0zm5 2l0 0c0,0 1,0 1,1 0,1 -1,1 -1,1l0 0c-1,0 -2,0 -2,-1 0,-1 1,-1 2,-1l0 0zm2 -10l7 -2 -7 8 -6 -8 6 2z"/>
 </g>
</svg>
