<?xml version="1.0" encoding="UTF-8"?>
<!DOCTYPE svg PUBLIC "-//W3C//DTD SVG 1.1//EN" "http://www.w3.org/Graphics/SVG/1.1/DTD/svg11.dtd">
<!-- Creator: CorelDRAW X8 -->
<svg xmlns="http://www.w3.org/2000/svg" xml:space="preserve" width="67px" height="65px" version="1.1" style="shape-rendering:geometricPrecision; text-rendering:geometricPrecision; image-rendering:optimizeQuality; fill-rule:evenodd; clip-rule:evenodd"
viewBox="0 0 67 65"
 xmlns:xlink="http://www.w3.org/1999/xlink">
 <defs>
  <style type="text/css">
   <![CDATA[
    .fil0 {fill:url(#id0)}
   ]]>
  </style>
  <linearGradient id="id0" gradientUnits="userSpaceOnUse" x1="0.00118112" y1="32.4996" x2="67.0024" y2="32.4996">
   <stop offset="0" style="stop-opacity:1; stop-color:#8283BD"/>
   <stop offset="1" style="stop-opacity:1; stop-color:#464274"/>
  </linearGradient>
 </defs>
 <g id="Слой_x0020_1">
  <metadata id="CorelCorpID_0Corel-Layer"/>
  <path id="icon" class="fil0" d="M42 36l-9 11 -9 -11 9 4 9 -4zm-9 -19l9 16 -9 4 -10 -4 10 -16zm32 10l-15 -6c0,-1 -1,-1 -1,-2 0,0 0,0 1,-1l5 -4c-5,-7 -14,-11 -23,-11 -4,0 -8,1 -12,3 -10,4 -17,15 -17,27 0,16 13,29 29,29 14,0 26,-9 29,-23 0,0 1,-1 1,-1 1,0 2,1 2,2 0,0 0,0 0,0 -4,15 -17,25 -32,25 -18,0 -32,-15 -32,-33 0,-17 14,-32 32,-32 10,0 19,5 26,12l5 -4c0,0 1,0 1,0 0,0 1,0 1,1 0,0 0,0 0,0l2 16c0,0 0,1 0,1 0,0 -1,1 -1,1 0,0 -1,0 -1,0l0 0zm-2 -16l-10 8 12 5 -2 -13z"/>
 </g>
</svg>
