<svg xmlns="http://www.w3.org/2000/svg" width="15" height="14.97" viewBox="0 0 15 14.97">
  <metadata><?xpacket begin="﻿" id="W5M0MpCehiHzreSzNTczkc9d"?>
<x:xmpmeta xmlns:x="adobe:ns:meta/" x:xmptk="Adobe XMP Core 5.6-c142 79.160924, 2017/07/13-01:06:39        ">
   <rdf:RDF xmlns:rdf="http://www.w3.org/1999/02/22-rdf-syntax-ns#">
      <rdf:Description rdf:about=""/>
   </rdf:RDF>
</x:xmpmeta>
                                                                                                    
                                                                                                    
                                                                                                    
                                                                                                    
                                                                                                    
                                                                                                    
                                                                                                    
                                                                                                    
                                                                                                    
                                                                                                    
                                                                                                    
                                                                                                    
                                                                                                    
                                                                                                    
                                                                                                    
                                                                                                    
                                                                                                    
                                                                                                    
                                                                                                    
                                                                                                    
                           
<?xpacket end="w"?></metadata>
<defs>
    <style>
      .cls-1 {
        fill: #15416d;
        fill-rule: evenodd;
      }
    </style>
  </defs>
  <path id="Forma_1" data-name="Forma 1" class="cls-1" d="M1166.49,3477.9l-0.76.75a1.678,1.678,0,0,1-2.38,0,1.642,1.642,0,0,1,0-2.34l2.79-2.77c0.58-.57,1.67-1.42,2.46-0.63a0.932,0.932,0,0,0,1.32-.01,0.921,0.921,0,0,0-.01-1.31c-1.35-1.34-3.34-1.09-5.08.63l-2.79,2.77a3.528,3.528,0,0,0,5,4.98l0.76-.75a0.921,0.921,0,0,0,.01-1.31A0.932,0.932,0,0,0,1166.49,3477.9Zm8.47-10.76a3.33,3.33,0,0,0-4.82-.18l-0.94.94a0.921,0.921,0,0,0-.01,1.31,0.932,0.932,0,0,0,1.32,0l0.94-.93a1.505,1.505,0,0,1,2.2.18,1.654,1.654,0,0,1,0,2.35l-2.98,2.95c-1.36,1.35-2,.72-2.27.45a0.942,0.942,0,0,0-1.32,0,0.92,0.92,0,0,0,.01,1.31,2.884,2.884,0,0,0,2.08.93,4.1,4.1,0,0,0,2.81-1.37l2.98-2.96A3.5,3.5,0,0,0,1174.96,3467.14Z" transform="translate(-1161 -3466.03)"/>
</svg>
