<svg xmlns="http://www.w3.org/2000/svg" width="36" height="34" viewBox="0 0 36 34">
  <metadata><?xpacket begin="﻿" id="W5M0MpCehiHzreSzNTczkc9d"?>
<x:xmpmeta xmlns:x="adobe:ns:meta/" x:xmptk="Adobe XMP Core 5.6-c142 79.160924, 2017/07/13-01:06:39        ">
   <rdf:RDF xmlns:rdf="http://www.w3.org/1999/02/22-rdf-syntax-ns#">
      <rdf:Description rdf:about=""/>
   </rdf:RDF>
</x:xmpmeta>
                                                                                                    
                                                                                                    
                                                                                                    
                                                                                                    
                                                                                                    
                                                                                                    
                                                                                                    
                                                                                                    
                                                                                                    
                                                                                                    
                                                                                                    
                                                                                                    
                                                                                                    
                                                                                                    
                                                                                                    
                                                                                                    
                                                                                                    
                                                                                                    
                                                                                                    
                                                                                                    
                           
<?xpacket end="w"?></metadata>
<defs>
    <style>
      .cls-1 {
        fill: #fff;
        fill-rule: evenodd;
      }
    </style>
  </defs>
  <path id="Icon" class="cls-1" d="M1079.97,696.125a1.452,1.452,0,0,0-1.46,1.436v1.447a13.948,13.948,0,0,1-4.19,9.987,14.3,14.3,0,0,1-10.11,4.132h-0.01a14.229,14.229,0,0,1-14.29-14.136A13.948,13.948,0,0,1,1054.1,689a14.3,14.3,0,0,1,10.11-4.132h0.01a14.334,14.334,0,0,1,5.81,1.223,1.457,1.457,0,0,0,1.92-.727,1.426,1.426,0,0,0-.73-1.9,17.288,17.288,0,0,0-7-1.472h-0.01a17.208,17.208,0,0,0-12.16,4.972,16.856,16.856,0,0,0-.02,24.042A17.215,17.215,0,0,0,1064.2,716h0.01a17.187,17.187,0,0,0,12.16-4.973,16.746,16.746,0,0,0,5.05-12.019v-1.447A1.444,1.444,0,0,0,1079.97,696.125Zm2.6-12.139a1.459,1.459,0,0,0-2.05,0l-16.31,16.1-3.7-3.654a1.459,1.459,0,0,0-2.05,0,1.421,1.421,0,0,0,0,2.032l4.72,4.669a1.478,1.478,0,0,0,1.03.42,1.461,1.461,0,0,0,1.03-.42l17.33-17.12A1.42,1.42,0,0,0,1082.57,683.986Z" transform="translate(-1047 -682)"/>
</svg>
