<svg xmlns="http://www.w3.org/2000/svg" width="24" height="24" viewBox="0 0 24 24">
  <metadata><?xpacket begin="﻿" id="W5M0MpCehiHzreSzNTczkc9d"?>
<x:xmpmeta xmlns:x="adobe:ns:meta/" x:xmptk="Adobe XMP Core 5.6-c142 79.160924, 2017/07/13-01:06:39        ">
   <rdf:RDF xmlns:rdf="http://www.w3.org/1999/02/22-rdf-syntax-ns#">
      <rdf:Description rdf:about=""/>
   </rdf:RDF>
</x:xmpmeta>
                                                                                                    
                                                                                                    
                                                                                                    
                                                                                                    
                                                                                                    
                                                                                                    
                                                                                                    
                                                                                                    
                                                                                                    
                                                                                                    
                                                                                                    
                                                                                                    
                                                                                                    
                                                                                                    
                                                                                                    
                                                                                                    
                                                                                                    
                                                                                                    
                                                                                                    
                                                                                                    
                           
<?xpacket end="w"?></metadata>
<defs>
    <style>
      .cls-1 {
        fill: #15416d;
        fill-rule: evenodd;
      }
    </style>
  </defs>
  <path id="https:_etherscan.io" data-name="https://etherscan.io" class="cls-1" d="M1135.9,546.872V540.45a1.123,1.123,0,0,0-1.13-1.125h-1.65a1.121,1.121,0,0,0-1.12,1.125v8.175a1.058,1.058,0,0,0,.15.556q-0.675.358-1.35,0.681V542.7a1.124,1.124,0,0,0-1.13-1.126h-1.65a1.122,1.122,0,0,0-1.12,1.126v8.175a1.187,1.187,0,0,0,.08.423c-0.35.1-.71,0.2-1.06,0.289V545.4a1.122,1.122,0,0,0-1.12-1.126h-1.65a1.131,1.131,0,0,0-1.13,1.126v6.945c-1.23.17-2.28,0.253-3.02,0.293a12,12,0,1,1,21.66-9.471A51.687,51.687,0,0,1,1135.9,546.872Zm-4.2,5.578a28.772,28.772,0,0,0,9.25-7.549c0.03,0.362.05,0.728,0.05,1.1a12,12,0,0,1-19.57,9.307A27.5,27.5,0,0,0,1131.7,552.45Z" transform="translate(-1117 -534)"/>
</svg>
