<svg xmlns="http://www.w3.org/2000/svg" width="16" height="16" viewBox="0 0 16 16">
  <metadata><?xpacket begin="﻿" id="W5M0MpCehiHzreSzNTczkc9d"?>
<x:xmpmeta xmlns:x="adobe:ns:meta/" x:xmptk="Adobe XMP Core 5.6-c142 79.160924, 2017/07/13-01:06:39        ">
   <rdf:RDF xmlns:rdf="http://www.w3.org/1999/02/22-rdf-syntax-ns#">
      <rdf:Description rdf:about=""/>
   </rdf:RDF>
</x:xmpmeta>
                                                                                                    
                                                                                                    
                                                                                                    
                                                                                                    
                                                                                                    
                                                                                                    
                                                                                                    
                                                                                                    
                                                                                                    
                                                                                                    
                                                                                                    
                                                                                                    
                                                                                                    
                                                                                                    
                                                                                                    
                                                                                                    
                                                                                                    
                                                                                                    
                                                                                                    
                                                                                                    
                           
<?xpacket end="w"?></metadata>
<defs>
    <style>
      .cls-1 {
        fill: #fff;
        fill-rule: evenodd;
      }
    </style>
  </defs>
  <path id="Link" class="cls-1" d="M846.859,604.6l-0.809.8a1.813,1.813,0,0,1-2.545,0,1.758,1.758,0,0,1,0-2.5l2.98-2.954c0.618-.612,1.78-1.513,2.626-0.674a0.991,0.991,0,1,0,1.4-1.406c-1.439-1.427-3.566-1.163-5.419.674l-2.98,2.954a3.735,3.735,0,0,0,0,5.312,3.805,3.805,0,0,0,5.338,0l0.81-.8A0.991,0.991,0,1,0,846.859,604.6Zm9.032-11.475a3.545,3.545,0,0,0-5.139-.2l-1.009,1a0.991,0.991,0,1,0,1.4,1.406l1.009-1a1.606,1.606,0,0,1,2.345.2,1.758,1.758,0,0,1,0,2.5l-3.18,3.152c-1.454,1.44-2.136.764-2.427,0.476a0.991,0.991,0,1,0-1.4,1.405,3.13,3.13,0,0,0,2.228.99,4.372,4.372,0,0,0,2.993-1.466l3.179-3.151A3.736,3.736,0,0,0,855.891,593.126Z" transform="translate(-841 -591.906)"/>
</svg>
