<svg xmlns="http://www.w3.org/2000/svg" width="34" height="34" viewBox="0 0 34 34">
  <metadata><?xpacket begin="﻿" id="W5M0MpCehiHzreSzNTczkc9d"?>
<x:xmpmeta xmlns:x="adobe:ns:meta/" x:xmptk="Adobe XMP Core 5.6-c142 79.160924, 2017/07/13-01:06:39        ">
   <rdf:RDF xmlns:rdf="http://www.w3.org/1999/02/22-rdf-syntax-ns#">
      <rdf:Description rdf:about=""/>
   </rdf:RDF>
</x:xmpmeta>
                                                                                                    
                                                                                                    
                                                                                                    
                                                                                                    
                                                                                                    
                                                                                                    
                                                                                                    
                                                                                                    
                                                                                                    
                                                                                                    
                                                                                                    
                                                                                                    
                                                                                                    
                                                                                                    
                                                                                                    
                                                                                                    
                                                                                                    
                                                                                                    
                                                                                                    
                                                                                                    
                           
<?xpacket end="w"?></metadata>
<defs>
    <style>
      .cls-1 {
        fill: #fff;
        fill-rule: evenodd;
      }
    </style>
  </defs>
  <path id="Icon" class="cls-1" d="M905.871,682a9.136,9.136,0,0,0-9.128,9.129v2.535A1.261,1.261,0,0,0,898,694.921a1.705,1.705,0,0,0,1.688-1.257v-2.535a6.184,6.184,0,1,1,6.183,6.183H890.129c-5.036,0-9.129,4.523-9.129,9.559a9.129,9.129,0,1,0,18.257,0v-2.507A1.261,1.261,0,0,0,898,703.106a1.7,1.7,0,0,0-1.688,1.258v2.507a5.911,5.911,0,0,1-6.183,6.184,6.624,6.624,0,0,1-6.615-6.614c0-3.646,2.969-6.184,6.615-6.184h15.742A9.129,9.129,0,1,0,905.871,682Z" transform="translate(-881 -682)"/>
</svg>
