<svg xmlns="http://www.w3.org/2000/svg" width="26" height="35" viewBox="0 0 26 35">
  <metadata><?xpacket begin="﻿" id="W5M0MpCehiHzreSzNTczkc9d"?>
<x:xmpmeta xmlns:x="adobe:ns:meta/" x:xmptk="Adobe XMP Core 5.6-c142 79.160924, 2017/07/13-01:06:39        ">
   <rdf:RDF xmlns:rdf="http://www.w3.org/1999/02/22-rdf-syntax-ns#">
      <rdf:Description rdf:about=""/>
   </rdf:RDF>
</x:xmpmeta>
                                                                                                    
                                                                                                    
                                                                                                    
                                                                                                    
                                                                                                    
                                                                                                    
                                                                                                    
                                                                                                    
                                                                                                    
                                                                                                    
                                                                                                    
                                                                                                    
                                                                                                    
                                                                                                    
                                                                                                    
                                                                                                    
                                                                                                    
                                                                                                    
                                                                                                    
                                                                                                    
                           
<?xpacket end="w"?></metadata>
<defs>
    <style>
      .cls-1 {
        fill: #fff;
        fill-rule: evenodd;
      }
    </style>
  </defs>
  <path id="Icon" class="cls-1" d="M1247.9,695.413a1.437,1.437,0,0,0-1.84.841c-0.61,1.646-4.63,3.422-10.06,3.422-5.29,0-9.24-1.681-10.01-3.3a1.448,1.448,0,0,0-1.91-.687,1.427,1.427,0,0,0-.7,1.894c1.4,2.96,6.47,4.938,12.62,4.938a22.836,22.836,0,0,0,8.04-1.35c2.48-.959,4.12-2.321,4.72-3.943A1.429,1.429,0,0,0,1247.9,695.413Zm0,7.247a1.436,1.436,0,0,0-1.84.841c-0.61,1.645-4.63,3.422-10.06,3.422-5.29,0-9.24-1.681-10.01-3.3a1.449,1.449,0,0,0-1.91-.686,1.427,1.427,0,0,0-.7,1.894c1.4,2.96,6.47,4.937,12.62,4.937a22.859,22.859,0,0,0,8.04-1.349c2.48-.96,4.12-2.321,4.72-3.943A1.42,1.42,0,0,0,1247.9,702.66Zm0,7.235a1.436,1.436,0,0,0-1.84.841c-0.61,1.646-4.63,3.422-10.06,3.422-5.29,0-9.24-1.681-10.01-3.3a1.449,1.449,0,0,0-1.91-.686,1.426,1.426,0,0,0-.7,1.894c1.4,2.96,6.47,4.938,12.62,4.938a22.859,22.859,0,0,0,8.04-1.35c2.48-.959,4.12-2.321,4.72-3.943A1.429,1.429,0,0,0,1247.9,709.9ZM1236,682c-7.42,0-13,2.854-13,6.643s5.58,6.643,13,6.643,13-2.853,13-6.643S1243.41,682,1236,682Zm0,10.444c-6.18,0-10.13-2.249-10.13-3.8s3.95-3.8,10.13-3.8,10.13,2.25,10.13,3.8S1242.18,692.441,1236,692.441Z" transform="translate(-1223 -682)"/>
</svg>
