<svg xmlns="http://www.w3.org/2000/svg" width="130" height="153" viewBox="0 0 130 153">
  <metadata><?xpacket begin="﻿" id="W5M0MpCehiHzreSzNTczkc9d"?>
<x:xmpmeta xmlns:x="adobe:ns:meta/" x:xmptk="Adobe XMP Core 5.6-c142 79.160924, 2017/07/13-01:06:39        ">
   <rdf:RDF xmlns:rdf="http://www.w3.org/1999/02/22-rdf-syntax-ns#">
      <rdf:Description rdf:about=""/>
   </rdf:RDF>
</x:xmpmeta>
                                                                                                    
                                                                                                    
                                                                                                    
                                                                                                    
                                                                                                    
                                                                                                    
                                                                                                    
                                                                                                    
                                                                                                    
                                                                                                    
                                                                                                    
                                                                                                    
                                                                                                    
                                                                                                    
                                                                                                    
                                                                                                    
                                                                                                    
                                                                                                    
                                                                                                    
                                                                                                    
                           
<?xpacket end="w"?></metadata>
<defs>
    <style>
      .cls-1 {
        fill: #e2eff2;
        fill-rule: evenodd;
      }
    </style>
  </defs>
  <path id="icon" class="cls-1" d="M1013.45,2374.44h1.01c9.27-.16,16.77-3.42,22.31-9.66,12.19-13.75,10.16-37.33,9.94-39.58-0.79-16.88-8.77-24.96-15.35-28.73a35.2,35.2,0,0,0-17.03-4.47h-0.54a35.2,35.2,0,0,0-17.023,4.34c-6.646,3.77-14.748,11.85-15.539,28.86-0.222,2.25-2.247,25.83,9.937,39.58C996.672,2371.02,1004.17,2374.28,1013.45,2374.44ZM986.678,2326c0-.1.032-0.19,0.032-0.26,1.044-22.71,20.15-28.15,27.05-28.15h0.38c8.55,0.19,26.07,6.67,27.06,28.15a0.689,0.689,0,0,0,.03.26c0.03,0.22,2.24,21.76-7.82,33.11-3.99,4.49-12.3,9.71-19.3,9.78h-0.32c-6.96-.07-14.307-3.29-18.263-7.78C985.494,2349.83,986.646,2326.19,986.678,2326Zm92.312,87.54v-0.1c0-.25-0.03-0.5-0.03-0.79-0.19-6.27-.6-20.94-14.34-25.63-0.09-.03-0.22-0.06-0.31-0.1a91.212,91.212,0,0,1-26.27-11.97c-1.93-1.37-2.59-.89-3.95,1.04s-1.89,2.6.04,3.96a97.263,97.263,0,0,0,27.9,12.21c7.37,2.63,11.19,13.52,11.42,20.74a6.869,6.869,0,0,0,.03.8,83.575,83.575,0,0,1-.67,11.79c-5.12,2.91-28.22,13.99-58.79,13.99-30.45,0-52.674-11.11-57.832-14.02-0.507-2.54-1.728-8.94-1.665-11.8,0-.25.032-0.5,0.032-0.79,0.221-7.22,3.044-18.11,10.418-20.74a113.518,113.518,0,0,0,28.9-12.21c1.931-1.36,1.406-2.03.045-3.96s-2.02-2.41-3.95-1.04a90.408,90.408,0,0,1-26.269,11.97c-0.126.03-.221,0.07-0.316,0.1-13.736,4.72-14.147,19.39-14.337,25.63a6.28,6.28,0,0,1-.032.79v0.1c-0.031,1.64-.063,10.1,1.615,14.35a4.042,4.042,0,0,0,1.645,1.99c0.95,0.64,23.705,15.15,61.781,15.15s60.83-14.54,61.78-15.15a4.272,4.272,0,0,0,1.64-1.99C1079.05,2423.65,1079.02,2415.19,1078.99,2413.54Z" transform="translate(-949 -2292)"/>
</svg>
