<svg xmlns="http://www.w3.org/2000/svg" width="154" height="153" viewBox="0 0 154 153">
  <metadata><?xpacket begin="﻿" id="W5M0MpCehiHzreSzNTczkc9d"?>
<x:xmpmeta xmlns:x="adobe:ns:meta/" x:xmptk="Adobe XMP Core 5.6-c142 79.160924, 2017/07/13-01:06:39        ">
   <rdf:RDF xmlns:rdf="http://www.w3.org/1999/02/22-rdf-syntax-ns#">
      <rdf:Description rdf:about=""/>
   </rdf:RDF>
</x:xmpmeta>
                                                                                                    
                                                                                                    
                                                                                                    
                                                                                                    
                                                                                                    
                                                                                                    
                                                                                                    
                                                                                                    
                                                                                                    
                                                                                                    
                                                                                                    
                                                                                                    
                                                                                                    
                                                                                                    
                                                                                                    
                                                                                                    
                                                                                                    
                                                                                                    
                                                                                                    
                                                                                                    
                           
<?xpacket end="w"?></metadata>
<defs>
    <style>
      .cls-1 {
        fill: #e2eff2;
        fill-rule: evenodd;
      }
    </style>
  </defs>
  <path id="Icon" class="cls-1" d="M1488.9,2345.5l-48.76-48.45a14.088,14.088,0,0,0-19.77,0l-77.29,76.8a13.858,13.858,0,0,0,0,19.64l6.01,5.98h0.01l40.41,40.15h-5.6a3.19,3.19,0,1,0,0,6.38h64.16a3.19,3.19,0,1,0,0-6.38h-34.12l74.95-74.47A13.852,13.852,0,0,0,1488.9,2345.5Zm-4.53,15.14-77.29,76.8a7.567,7.567,0,0,1-5.34,2.18h-0.02a7.55,7.55,0,0,1-5.34-2.18l-40.48-40.22,74.23-73.76a3.181,3.181,0,0,0,0-4.51,3.235,3.235,0,0,0-4.54,0l-74.23,73.76-3.74-3.72a7.52,7.52,0,0,1,0-10.63l77.29-76.8a7.63,7.63,0,0,1,10.7,0l17.35,17.25-74.23,73.75a3.181,3.181,0,0,0,0,4.51,3.235,3.235,0,0,0,4.54,0l74.23-73.76,26.87,26.7A7.49,7.49,0,0,1,1484.37,2360.64Zm-66.33,24.42a3.217,3.217,0,0,0-4.54,0l-25.24,25.08a3.181,3.181,0,0,0,0,4.51,3.235,3.235,0,0,0,4.54,0l25.24-25.08A3.181,3.181,0,0,0,1418.04,2385.06Zm-10.35,23.81-10.36,10.29a3.2,3.2,0,0,0,4.54,4.5l10.35-10.28a3.163,3.163,0,0,0,0-4.51A3.2,3.2,0,0,0,1407.69,2408.87Zm9.53-9.47-1.37,1.35a3.181,3.181,0,0,0,0,4.51,3.211,3.211,0,0,0,4.54,0l1.36-1.35a3.181,3.181,0,0,0,0-4.51A3.223,3.223,0,0,0,1417.22,2399.4Zm44.21-57.46a3.223,3.223,0,0,0-4.53,0l-13.61,13.53a3.175,3.175,0,0,0,0,4.51l9.07,9.01a3.235,3.235,0,0,0,4.54,0l13.61-13.52a3.181,3.181,0,0,0,0-4.51Zm-6.8,20.29-4.54-4.51,9.08-9.01,4.53,4.5Zm-19.28-45.27a3.2,3.2,0,0,0,2.27-.94l1.36-1.35a3.181,3.181,0,0,0,0-4.51,3.235,3.235,0,0,0-4.54,0l-1.36,1.36a3.181,3.181,0,0,0,0,4.51A3.227,3.227,0,0,0,1435.35,2316.96Zm-64.1,83.04-1.36,1.35a3.2,3.2,0,0,0,4.53,4.51l1.36-1.35a3.163,3.163,0,0,0,0-4.51A3.2,3.2,0,0,0,1371.25,2400Z" transform="translate(-1339 -2293)"/>
</svg>
